<svg width="20" height="20" viewBox="0 0 20 20" fill="none" xmlns="http://www.w3.org/2000/svg">
<g clip-path="url(#clip0)">
<path d="M9.99988 20.0007C15.5227 20.0007 19.9998 15.5236 19.9998 10.0009C19.9998 4.47808 15.5227 0.000976562 9.99988 0.000976562C4.4771 0.000976562 0 4.47808 0 10.0009C0 15.5236 4.4771 20.0007 9.99988 20.0007Z" fill="#41B4E6"/>
<path d="M20.0001 10.0002C20.0001 9.75654 19.9909 9.5151 19.9738 9.27576L15.8293 5.13135L4.1709 9.71725L8.63148 14.1779L8.69 14.3885L8.76574 14.3121L8.76605 14.3124L8.69 14.3885L13.6242 19.3228C17.3555 17.8712 20.0001 14.2447 20.0001 10.0002Z" fill="#0091C8"/>
<path d="M9.02898 11.4571L13.5482 14.8691L15.8294 5.13135L4.1709 9.71725L7.71844 10.8923L14.1928 6.54947L9.02898 11.4571Z" fill="white"/>
<path d="M7.71875 10.8921L8.69035 14.3884L9.0293 11.457L14.1931 6.54932L7.71875 10.8921Z" fill="#D2D2D7"/>
<path d="M10.4981 12.5659L8.69043 14.3884L9.02938 11.457L10.4981 12.5659Z" fill="#B9B9BE"/>
</g>
<defs>
<clipPath id="clip0">
<rect width="20" height="20" fill="white"/>
</clipPath>
</defs>
</svg>
